 http://desibbrg.org/images/66952052392581364616.gif
 
http://desibbrg.org/images/27823019663962870712.png
 
http://desibbrg.org/images/53437026794554095064.png
 
http://desibbrg.org/images/86162169280328427438.png
 
http://desibbrg.org/images/57702784224134417758.png
 
http://desibbrg.org/images/45673149116517813017.png

Media Info - 
Video
ID : 1
Format : AVC
Format/Info : Advanced Video Codec
Format profile : Main@L3.1
Format settings, CABAC : Yes
Format settings, ReFrames : 4 frames
Codec ID : avc1
Codec ID/Info : Advanced Video Coding
Duration : 1h 36mn
Bit rate mode : Variable
Bit rate : 2 564 Kbps
Width : 1 280 pixels
Height : 600 pixels
Display aspect ratio : 2.2:1
Frame rate mode : Constant
Frame rate : 25.000 fps
Color space : YUV
Chroma subsampling : 4:2:0
Bit depth : 8 bits
Scan type : Progressive
Bits/(Pixel*Frame) : 0.134
Stream size : 1.74 GiB (94%)
Writing library : x264 core 120

Audio
ID : 2
Format : AAC
Format/Info : Advanced Audio Codec
Format profile : LC
Codec ID : 40
Duration : 1h 36mn
Bit rate mode : Variable
Bit rate : 160 Kbps
Maximum bit rate : 204 Kbps
Channel(s) : 2 channels
Channel positions : Front: L R
Sampling rate : 44.1 KHz
Compression mode : Lossy
Stream size : 111 MiB (6%)
Language : English

Ripper : Lottery

Seeding 24x7... Extreme Seeding...


Enjoy!
